<svg width="713" height="511" viewBox="0 0 713 511" fill="none" xmlns="http://www.w3.org/2000/svg">
<path d="M618.655 348.514C606.735 467.535 465.157 482.726 398.403 495.991H314.195C271.068 487.403 196.642 478.05 146.209 440.363C134.013 431.254 123.224 420.495 114.605 407.719C108.461 398.611 103.448 388.463 99.7805 377.123C97.3047 369.451 95.4708 361.229 94.3704 352.396C93.9425 349.034 93.6369 345.611 93.4229 342.096C92.8116 331.795 93.1478 320.73 94.5233 308.871C95.7153 298.601 103.601 263.451 114.299 229.035C117.936 217.298 121.91 205.652 126.097 195.107C110.876 127.497 104.671 42.3732 127.564 13.0306C142.449 -6.04213 182.734 13.0917 243.773 65.4193C287.39 46.2244 347.145 45.0935 356.314 45.124C365.484 45.0935 425.239 46.2244 468.855 65.4193C529.894 13.1223 570.179 -6.04213 585.064 13.0306C607.958 42.3732 601.753 127.497 586.531 195.107C602.914 236.646 616.485 295.086 618.105 308.871C619.756 323.206 619.878 336.41 618.655 348.514Z" fill="black"/>
<path d="M599.98 92.1026C599.216 65.083 594.754 42.4953 585.034 30.0247C570.149 10.952 529.864 30.0858 468.825 82.4134C425.239 63.2185 365.453 62.0876 356.284 62.1181C347.114 62.0876 287.359 63.2185 243.743 82.4134C182.704 30.1164 142.419 10.952 127.534 30.0247C117.814 42.4953 113.321 65.083 112.588 92.1026C111.732 57.6862 115.827 28.0685 127.534 13.0304C142.419 -6.04225 182.704 13.0916 243.743 65.4192C287.359 46.2242 347.114 45.0933 356.284 45.1239C365.453 45.0933 425.208 46.2242 468.825 65.4192C529.864 13.1221 570.149 -6.04225 585.034 13.0304C596.74 28.0379 600.836 57.6862 599.98 92.1026Z" fill="#EDEBF9"/>
<path d="M618.655 348.514C606.735 467.535 465.157 482.726 398.402 495.992H314.195C271.068 487.403 196.641 478.05 146.209 440.363C134.013 431.254 123.224 420.495 114.604 407.719C108.461 398.611 103.448 388.463 99.7802 377.123C97.3044 369.452 95.4705 361.23 94.3701 352.396C197.467 440.944 271.893 401.239 305.178 333.599C318.016 307.496 343.324 304.99 354.297 304.99C365.27 304.99 390.577 307.496 403.415 333.599C437.159 402.156 513.266 442.044 618.655 348.514Z" fill="white"/>
<path d="M606.843 391.015C569.218 470.852 455.851 483.75 398.236 495.181H314.029C270.901 486.593 196.475 477.24 146.042 439.553C133.847 430.444 123.057 419.685 114.438 406.909C111.106 401.958 108.081 396.67 105.452 391.076C110.893 396.486 116.73 401.499 122.905 406.084C161.325 434.785 294.895 449.211 356.117 449.211C417.339 449.211 567.537 430.2 606.843 391.015Z" fill="#EDEBF9"/>
<path d="M202.387 184.379C199.3 179.55 219.81 136.423 258.475 149.168C272.412 153.753 273.696 167.324 262.907 170.228C252.606 172.979 247.991 170.747 232.036 176.371C223.05 179.55 205.505 189.209 202.387 184.379Z" fill="black"/>
<path d="M510.179 184.379C513.266 179.55 492.757 136.423 454.092 149.168C440.154 153.753 438.871 167.324 449.66 170.228C459.961 172.979 464.576 170.747 480.531 176.371C489.517 179.55 507.062 189.209 510.179 184.379Z" fill="black"/>
<path d="M180.838 116.402C162.071 136.423 150.243 164.42 148.562 161.15C148.409 160.844 148.225 160.447 148.073 160.019C144.527 150.849 138.628 114.477 138.72 82.0777C138.75 76.8511 138.872 72.2357 139.147 68.1705C139.881 57.1976 141.44 50.137 143.365 45.644C145.75 40.1422 151.098 38.4612 155.806 40.3256C168.368 45.2772 204.068 68.8124 215.652 83.8811C217.761 86.5708 199.605 96.3822 180.838 116.402Z" fill="#EB52E8"/>
<path d="M180.84 116.402C162.073 136.423 150.244 164.42 148.563 161.15C148.41 160.844 148.227 160.447 148.074 160.019C152.261 143.025 163.815 119.551 172.648 102.556C184.752 79.388 168.155 60.9266 153.759 55.3943C148.838 53.4992 142.939 61.599 139.149 68.1705C139.882 57.1976 141.441 50.137 143.367 45.644C145.751 40.1422 151.1 38.4612 155.807 40.3256C168.369 45.2772 204.069 68.8124 215.653 83.8811C217.762 86.5708 199.607 96.3822 180.84 116.402Z" fill="#C638FE"/>
<path d="M149.023 167.66C148.931 167.66 148.809 167.66 148.717 167.66C146.333 167.568 144.163 166.193 143.032 163.992C138.814 155.74 132.426 115.73 132.518 82.0775C132.579 63.9218 134.26 51.2067 137.683 43.2292C141.259 34.946 149.848 31.3087 158.131 34.5792C171.427 39.8058 207.952 63.6773 220.637 80.1213C222.165 82.1081 223.877 86.2038 218.284 91.6139C216.511 93.3255 213.943 95.3734 210.734 97.9409C204.01 103.29 194.84 110.625 185.395 120.681C175.003 131.746 166.72 145.561 161.249 154.731C155.472 164.267 153.455 167.66 149.023 167.66ZM144.927 82.1081C144.866 106.346 148.228 132.571 151.162 147.273C156.909 137.676 165.406 123.768 176.287 112.154C186.343 101.425 196.338 93.4478 202.94 88.1906C204.621 86.8763 206.394 85.4397 207.8 84.2476C194.565 70.096 163.939 50.2286 153.546 46.1329C152.385 45.6744 150.307 45.3382 149.084 48.1196C147.25 52.4904 144.988 61.9045 144.927 82.1081Z" fill="black"/>
<path d="M532.398 116.402C551.165 136.422 562.994 164.42 564.675 161.15C564.828 160.844 565.011 160.447 565.164 160.019C568.71 150.849 574.609 114.477 574.517 82.0775C574.487 76.8508 574.364 72.2355 574.089 68.1703C573.356 57.1974 571.797 50.1368 569.871 45.6437C567.487 40.142 562.138 38.4609 557.431 40.3254C544.869 45.277 509.169 68.8122 497.585 83.8808C495.445 86.5706 513.601 96.382 532.398 116.402Z" fill="#EB52E8"/>
<path d="M532.398 116.402C551.165 136.422 562.994 164.42 564.675 161.15C564.828 160.844 565.011 160.447 565.164 160.019C560.977 143.024 549.423 119.55 540.59 102.556C528.486 79.3877 545.083 60.9263 559.479 55.394C564.4 53.499 570.299 61.5988 574.089 68.1703C573.356 57.1974 571.797 50.1368 569.871 45.6437C567.487 40.142 562.138 38.4609 557.431 40.3254C544.869 45.277 509.169 68.8122 497.585 83.8808C495.445 86.5706 513.601 96.382 532.398 116.402Z" fill="#C638FE"/>
<path d="M564.218 167.66C559.756 167.66 557.738 164.298 552.023 154.7C546.551 145.561 538.238 131.746 527.876 120.651C518.431 110.595 509.231 103.259 502.537 97.9101C499.298 95.3426 496.761 93.2947 494.988 91.5831C489.394 86.2036 491.106 82.0773 492.634 80.0906C505.319 63.6159 541.875 39.7751 555.14 34.5484C563.393 31.3085 572.012 34.9152 575.558 43.1984C578.981 51.2064 580.693 63.9216 580.723 82.0773C580.815 115.73 574.427 155.709 570.209 163.992C569.108 166.162 566.938 167.568 564.524 167.66C564.432 167.66 564.31 167.66 564.218 167.66ZM505.38 84.2474C506.786 85.4395 508.589 86.8455 510.24 88.1904C516.842 93.4781 526.837 101.425 536.893 112.153C547.805 123.768 556.271 137.706 562.017 147.273C564.952 132.571 568.314 106.346 568.253 82.1079C568.192 61.9043 565.96 52.4596 564.096 48.1194C562.904 45.3379 560.795 45.6742 559.633 46.1326C549.241 50.2284 518.645 70.0957 505.38 84.2474Z" fill="black"/>
<path d="M379.5 494C409 491.5 434.104 484.896 452.046 480.587C469.988 476.338 487.777 471.753 504.985 465.701C509.264 464.143 513.574 462.614 517.761 460.842C522.01 459.222 526.105 457.265 530.262 455.431C532.341 454.484 534.327 453.414 536.345 452.406C538.362 451.397 540.41 450.388 542.336 449.257L548.235 445.926C550.16 444.764 552.025 443.511 553.95 442.319L556.793 440.516C557.71 439.874 558.627 439.201 559.513 438.56L564.954 434.617L570.119 430.337C570.975 429.604 571.862 428.931 572.687 428.167L575.101 425.875C581.734 419.884 587.419 412.976 592.554 405.794L596.161 400.231C596.467 399.772 596.772 399.314 597.047 398.825L597.811 397.358L599.37 394.423L600.929 391.489C601.174 391 601.449 390.511 601.693 390.022L602.335 388.494L604.933 382.381L605.575 380.852L606.095 379.263L607.134 376.084C607.776 373.975 608.601 371.897 609.12 369.727L610.618 363.216L611.382 359.976L611.841 356.675L612.788 350.043C612.849 349.493 612.972 348.942 613.002 348.392L613.094 346.711L613.308 343.349L613.736 336.655C613.766 334.424 613.675 332.162 613.675 329.9L613.583 323.145L613.002 316.39L612.422 309.635L611.963 306.426L611.382 303.125C609.701 294.2 607.623 285.214 605.422 276.258C603.221 267.303 600.868 258.408 598.362 249.544C593.349 231.816 587.755 214.241 581.092 197.217L580.45 195.566L580.817 193.854C586.594 167.905 590.751 141.527 592.86 115.088C593.868 101.853 594.419 88.6185 594.021 75.4754C593.655 62.363 592.432 49.2199 589.253 36.9021C587.664 30.7585 585.432 24.89 582.407 19.9079C582.07 19.266 581.612 18.6853 581.214 18.1045L580.603 17.2181C580.389 16.9125 580.206 16.6068 579.992 16.4235C579.595 15.9955 579.258 15.5065 578.8 15.1703L578.189 14.5895C577.975 14.4061 577.73 14.2839 577.516 14.1005C575.713 12.8473 573.481 12.0832 570.914 11.8387C568.347 11.5941 565.504 11.8387 562.6 12.3889C559.697 12.9696 556.762 13.7948 553.828 14.8952C547.96 17.0348 542.152 19.9079 536.498 23.0561C525.158 29.4137 514.277 36.9939 503.671 44.9102C493.095 52.8878 482.794 61.3237 472.647 70.0043L469.774 72.4495L466.259 70.9518C457.792 67.3145 448.959 64.3803 439.942 61.935C430.925 59.4898 421.695 57.6559 412.403 56.1277C403.111 54.5994 393.728 53.4685 384.344 52.6432C374.96 51.8485 365.455 51.3289 356.163 51.2983C346.871 51.3595 337.365 51.8485 327.982 52.6738C318.568 53.4685 309.184 54.63 299.923 56.1582C290.631 57.717 281.4 59.5509 272.384 61.9962C263.367 64.4414 254.534 67.4062 246.067 71.0129L242.521 72.5412L239.648 70.0654C229.531 61.3849 219.231 52.9489 208.625 44.9714C198.018 37.0244 187.137 29.4748 175.798 23.1172C170.112 19.969 164.336 17.0959 158.467 14.9869C155.533 13.9171 152.599 13.0919 149.695 12.5111C146.791 11.9304 143.949 11.6859 141.381 11.9609C138.814 12.2055 136.613 12.9696 134.81 14.2228C134.596 14.3756 134.351 14.5284 134.137 14.6812L133.526 15.262C133.067 15.5982 132.731 16.0872 132.334 16.5152C132.15 16.6986 131.937 17.0042 131.723 17.3098L131.111 18.1962C130.683 18.777 130.255 19.3272 129.919 19.9996C126.893 25.0123 124.662 30.8502 123.103 36.9938C119.924 49.3116 118.732 62.4241 118.366 75.5671C117.999 88.7102 118.518 101.975 119.558 115.18C121.697 141.619 125.854 167.996 131.631 193.946L132.028 195.688L131.386 197.339C124.693 214.333 119.16 231.939 114.117 249.667C111.611 258.53 109.257 267.456 107.056 276.381C104.856 285.306 102.777 294.322 101.096 303.247C100.668 305.479 100.332 307.679 100.057 309.758C99.7819 311.989 99.568 314.251 99.3846 316.513C99.0178 321.006 98.7733 325.499 98.7121 330.022C98.5899 339.009 99.1706 347.995 100.577 356.798C103.389 374.403 109.807 391.306 119.924 405.885C129.98 420.495 143.429 432.66 158.528 442.411C173.658 452.161 190.347 459.619 207.524 465.701C224.732 471.814 242.521 476.338 260.494 480.464L267.218 482.054L273.973 483.582L287.513 486.7C296.561 488.809 320.5 490.893 335.5 492.5C349.5 494 362.898 495.136 362.5 496.542C362.133 497.795 335 501.076 313.586 498.804C295.155 496.847 276.663 494.433 258.324 490.795C239.985 487.158 221.768 482.359 203.948 476.124C186.159 469.858 168.706 462.095 152.568 451.764C136.491 441.433 121.819 428.29 110.755 412.273C99.6291 396.318 92.5074 377.674 89.4509 358.632C87.8921 349.095 87.2807 339.467 87.3724 329.9C87.4336 325.101 87.6781 320.333 88.0449 315.596C88.2588 313.212 88.4728 310.858 88.7479 308.474C89.0535 305.937 89.4509 303.553 89.9094 301.23C91.6516 291.908 93.73 282.799 95.9613 273.721C98.1925 264.643 100.546 255.596 103.083 246.61C108.157 228.607 113.75 210.757 120.627 193.151L120.352 196.544C114.423 170.075 110.144 143.269 107.912 116.158C106.842 102.617 106.262 88.9852 106.629 75.292C106.995 61.5988 108.187 47.7834 111.672 34.0596C113.445 27.213 115.92 20.3358 119.833 13.8254C120.291 13.0001 120.841 12.2055 121.422 11.4413L122.247 10.2493C122.522 9.85195 122.798 9.4546 123.195 9.02669C123.928 8.20143 124.601 7.34559 125.457 6.61203L126.71 5.48113C127.138 5.14491 127.627 4.80867 128.085 4.50302C131.784 1.90498 136.185 0.529558 140.281 0.162776C144.407 -0.234572 148.319 0.132188 152.018 0.865753C155.716 1.59932 159.231 2.60799 162.624 3.8306C169.379 6.27582 175.675 9.39345 181.727 12.7556C193.831 19.5105 205.048 27.3047 215.96 35.435C226.841 43.5959 237.325 52.1848 247.626 60.957L241.207 60.0094C250.377 56.0665 259.76 52.9183 269.235 50.3203C278.711 47.7222 288.339 45.8272 297.936 44.1767C307.564 42.5567 317.223 41.3647 326.943 40.5394C336.662 39.7141 346.321 39.1334 356.193 39.1029C366.066 39.164 375.725 39.7141 385.444 40.57C395.133 41.4258 404.823 42.6178 414.451 44.2072C424.079 45.8272 433.676 47.7528 443.151 50.3508C452.627 52.9489 462.01 56.0971 471.18 60.04L464.792 60.9875C475.092 52.2153 485.576 43.6265 496.457 35.4656C507.369 27.3352 518.586 19.5411 530.69 12.7862C536.773 9.45458 543.039 6.33693 549.793 3.89172C553.156 2.66911 556.701 1.66047 560.369 0.926906C564.067 0.223906 567.949 -0.173456 572.075 0.223891C576.171 0.590674 580.542 1.96613 584.24 4.56417C584.699 4.90039 585.157 5.20603 585.616 5.54224L586.869 6.64258C587.725 7.37615 588.397 8.23198 589.131 9.05724C589.528 9.48516 589.803 9.88251 590.078 10.2493L590.904 11.4413C591.454 12.236 592.035 13.0001 592.493 13.8254C596.405 20.3358 598.881 27.1824 600.654 34.0596C604.138 47.7834 605.33 61.5988 605.697 75.292C606.064 88.9852 605.483 102.617 604.414 116.158C602.182 143.239 597.903 170.044 591.943 196.514L591.698 193.182C598.514 210.757 604.138 228.638 609.212 246.61C611.749 255.596 614.103 264.643 616.334 273.721C618.535 282.83 620.613 291.908 622.386 301.23L622.997 304.776L623.517 308.474L624.097 315.596L624.678 322.717L624.77 329.9C624.8 332.284 624.831 334.668 624.831 337.083L624.373 344.266L624.128 347.873L624.006 349.676C623.945 350.287 623.853 350.868 623.761 351.479L622.722 358.632L622.202 362.208L621.377 365.723L619.727 372.783C619.146 375.137 618.29 377.399 617.557 379.721L616.426 383.175L615.845 384.887L615.142 386.568L612.299 393.262L611.596 394.943C611.321 395.493 611.046 396.013 610.74 396.563L609.029 399.772L607.317 402.982L606.461 404.571C606.156 405.091 605.819 405.58 605.483 406.099L601.51 412.212C595.886 420.098 589.651 427.587 582.498 434.036L579.87 436.512C578.983 437.337 578.036 438.07 577.119 438.835L571.556 443.419L565.718 447.637C564.74 448.34 563.792 449.043 562.784 449.716L559.758 451.641C557.74 452.925 555.723 454.239 553.675 455.462L547.44 458.977C545.392 460.2 543.252 461.239 541.113 462.278C538.973 463.317 536.895 464.448 534.725 465.426C530.385 467.352 526.105 469.369 521.673 471.05C517.303 472.884 512.871 474.443 508.408 476.063C499.483 479.12 490.497 481.962 481.419 484.285C476.895 485.538 472.311 486.547 467.756 487.678C463.172 488.656 458.617 489.665 454.002 490.551C435.632 494.127 417.171 496.633 398.801 498.865H398.771C355.5 500 331.5 499.579 331.5 496.542C332 493 360.5 494.5 379.5 494Z" fill="black"/>
<g opacity="0.15">
<path d="M401.919 352.457C401.919 352.457 401.918 380.271 377.038 378.804C359.402 377.765 355.765 363.247 355.49 362.085C355.215 363.247 351.547 377.765 333.941 378.804C309.031 380.271 309.061 352.457 309.061 352.457L355.307 316.421H355.734L401.919 352.457Z" fill="black"/>
</g>
<path d="M401.673 352.64C401.673 352.64 393.543 373.822 374.654 368.87C353.136 363.246 355.795 337.602 355.795 337.602H355C355 337.602 357.537 363.277 336.019 368.779C317.099 373.639 309.061 352.426 309.061 352.426C309.061 352.426 303.773 304.897 355.275 304.897C406.778 304.897 401.673 352.64 401.673 352.64Z" fill="white"/>
<path d="M399.258 357.348C395.59 363.277 387.704 372.263 374.683 368.871C353.166 363.277 355.794 337.602 355.794 337.602H354.999C354.999 337.602 357.536 363.277 335.988 368.81C322.967 372.141 315.112 363.124 311.475 357.195C315.112 357.531 319.055 357.256 323.364 356.156C358.912 347.017 354.724 312.203 354.724 312.203H356.039C356.039 312.203 351.698 347.017 387.215 356.308C391.555 357.409 395.59 357.714 399.258 357.348Z" fill="#EDEBF9"/>
<path d="M311.966 351.357C312.608 352.396 313.433 353.68 314.258 354.78C315.083 355.942 315.97 356.981 316.887 357.99C318.721 360.007 320.768 361.688 322.939 362.819C325.078 364.011 327.34 364.592 329.663 364.745C330.855 364.653 332.016 364.775 333.239 364.439C333.85 364.286 334.462 364.256 335.073 364.072L336.876 363.461C341.736 361.871 345.404 358.479 347.91 353.833C349.164 351.54 350.081 348.912 350.722 346.192C351.089 344.847 351.303 343.441 351.517 342.004C351.7 340.629 351.884 339.1 351.914 337.847V337.603C351.976 335.891 353.443 334.546 355.154 334.638C356.652 334.699 357.844 335.83 358.089 337.236C358.394 339.1 358.517 340.659 358.547 342.371C358.578 344.052 358.516 345.733 358.333 347.445C357.936 350.807 357.233 354.261 355.735 357.531C353.045 364.133 347.116 370.063 340.116 372.355L337.518 373.242C336.632 373.517 335.684 373.639 334.767 373.792C332.964 374.22 330.977 374.098 329.082 374.128C325.2 373.822 321.41 372.478 318.262 370.43C315.114 368.382 312.577 365.723 310.59 362.85C309.612 361.413 308.756 359.915 307.992 358.387C307.228 356.828 306.647 355.33 306.128 353.497C305.639 351.846 306.586 350.134 308.237 349.645C309.612 349.248 311.049 349.829 311.752 350.99L311.966 351.357Z" fill="black"/>
<path d="M404.577 353.741C404.027 355.575 403.446 357.042 402.682 358.601C401.948 360.129 401.062 361.627 400.084 363.063C398.097 365.936 395.56 368.565 392.381 370.613C389.202 372.63 385.443 373.975 381.561 374.25C379.666 374.22 377.679 374.311 375.876 373.883C374.959 373.7 374.012 373.578 373.125 373.333L370.527 372.447C363.528 370.124 357.629 364.164 354.969 357.562C353.502 354.291 352.799 350.837 352.402 347.475C352.219 345.794 352.157 344.082 352.188 342.401C352.218 340.69 352.341 339.1 352.677 337.266C352.952 335.585 354.572 334.424 356.253 334.729C357.72 334.974 358.79 336.227 358.851 337.664V337.908C358.912 339.161 359.065 340.69 359.248 342.065C359.462 343.471 359.676 344.877 360.013 346.252C360.654 348.973 361.541 351.601 362.794 353.924C365.27 358.57 368.938 361.993 373.798 363.583L375.601 364.194C376.212 364.378 376.824 364.408 377.404 364.561C378.627 364.897 379.788 364.775 380.98 364.897C383.303 364.714 385.565 364.164 387.705 362.972C389.875 361.841 391.923 360.16 393.757 358.173C394.674 357.164 395.591 356.094 396.385 354.964C397.21 353.863 398.036 352.579 398.678 351.54L398.861 351.235C399.778 349.767 401.673 349.34 403.14 350.226C404.454 350.99 404.974 352.427 404.577 353.741Z" fill="black"/>
<path d="M381.347 324.215C381.347 330.297 373.4 335.646 366.125 339.253C358.514 343.043 349.987 343.043 342.407 339.192C335.132 335.524 327.246 330.144 327.246 324.093C327.277 305.784 381.377 305.906 381.347 324.215Z" fill="#EB52E8"/>
<path d="M365.026 320.577C365.026 322.32 361.878 323.879 359.005 324.918C355.979 326.018 352.617 326.018 349.591 324.887C346.718 323.817 343.569 322.289 343.569 320.516C343.569 315.259 365.026 315.32 365.026 320.577Z" fill="#EDEBF9"/>
<path d="M125.913 339.406C124.874 338.825 123.682 338.183 122.551 337.602C121.42 336.991 120.228 336.41 119.036 335.83C117.875 335.249 116.683 334.699 115.46 334.179C114.237 333.659 113.076 333.079 111.853 332.59C106.994 330.603 102.073 328.677 97.0598 327.118C87.0344 323.909 76.8257 321.28 66.4029 319.691C65.1192 319.416 63.8049 319.294 62.4906 319.141L58.5782 318.652L54.6659 318.163C53.3516 318.01 52.0373 317.979 50.723 317.888C48.0944 317.735 45.4658 317.551 42.8372 317.368L34.9208 317.276C29.633 317.032 24.3452 317.674 19.0574 317.796L17.0707 317.888L15.084 318.102L11.141 318.53L3.19409 319.355L3.0107 319.385C1.51301 319.538 0.168142 318.438 0.0153159 316.94C-0.13751 315.504 0.871138 314.22 2.24657 313.975L10.3158 312.508L14.3504 311.805L16.3677 311.438L18.4156 311.225C21.1359 310.919 23.8562 310.644 26.5765 310.399C27.9519 310.308 29.2968 310.094 30.6722 310.063L34.7985 309.941C37.5494 309.88 40.3002 309.757 43.0205 309.727L51.2426 310.032C52.618 310.094 53.9935 310.124 55.3689 310.246L59.4646 310.674C62.1849 310.98 64.9358 311.163 67.6561 311.652L75.7865 313.028C78.4762 313.547 81.1659 314.22 83.8556 314.862C86.5454 315.443 89.174 316.298 91.8332 317.062C94.4924 317.796 97.0904 318.744 99.6579 319.691C110.019 323.512 119.953 328.219 129.092 334.943C130.315 335.829 130.559 337.541 129.673 338.764C128.848 339.895 127.289 340.2 126.097 339.528L125.913 339.406Z" fill="black"/>
<path d="M132.883 380.485C128.39 379.935 123.652 379.568 119.037 379.385C114.391 379.202 109.715 379.11 105.099 379.201C95.8075 379.446 86.5768 380.18 77.4989 381.952C72.9753 382.839 68.4822 383.878 64.1114 385.284C61.9107 385.926 59.7711 386.751 57.5704 387.485C55.4614 388.34 53.2913 389.135 51.2129 390.113C42.8074 393.812 35.0133 398.763 27.861 404.632L27.8305 404.662C26.669 405.61 24.9268 405.457 23.9793 404.296C23.0623 403.195 23.1846 401.606 24.1627 400.628C31.101 393.689 39.2007 387.821 48.0341 383.45C52.4355 381.249 56.9897 379.324 61.6662 377.795C66.3426 376.237 71.0802 374.922 75.9095 374.005C85.5376 372.049 95.3184 371.163 105.069 371.377C114.85 371.591 124.447 372.63 134.045 375.167C135.512 375.564 136.368 377.062 136.001 378.498C135.665 379.843 134.35 380.699 133.036 380.516L132.883 380.485Z" fill="black"/>
<path d="M583.504 334.913C592.643 328.188 602.546 323.481 612.939 319.661C615.537 318.713 618.135 317.766 620.763 317.032C623.423 316.298 626.021 315.412 628.741 314.831C631.431 314.22 634.09 313.517 636.81 312.997L644.94 311.622C647.661 311.133 650.412 310.949 653.132 310.644L657.228 310.216C658.603 310.094 659.979 310.063 661.354 310.002L669.576 309.696C672.327 309.727 675.078 309.849 677.798 309.91L681.924 310.033C683.3 310.063 684.645 310.247 686.02 310.369C688.74 310.613 691.461 310.888 694.181 311.194L696.229 311.408L698.246 311.775L702.281 312.478L710.35 313.945C711.848 314.22 712.826 315.626 712.551 317.124C712.306 318.53 710.992 319.508 709.586 319.355L709.402 319.324L701.456 318.499L697.513 318.071L695.526 317.857L693.539 317.766C688.251 317.643 682.964 317.001 677.676 317.246L669.759 317.338C667.131 317.552 664.502 317.704 661.874 317.857C660.559 317.949 659.245 317.979 657.931 318.132L654.018 318.621L650.106 319.11C648.792 319.263 647.477 319.385 646.194 319.661C635.771 321.25 625.562 323.879 615.537 327.088C610.524 328.677 605.603 330.572 600.743 332.559C599.521 333.048 598.359 333.629 597.136 334.149C595.914 334.668 594.722 335.218 593.56 335.799C592.368 336.349 591.207 336.93 590.045 337.572C588.884 338.153 587.692 338.794 586.683 339.375L586.5 339.467C585.185 340.231 583.504 339.772 582.771 338.458C582.037 337.266 582.404 335.738 583.504 334.913Z" fill="black"/>
<path d="M578.523 375.136C588.121 372.63 597.718 371.56 607.499 371.346C617.249 371.163 627.03 372.019 636.658 373.975C641.488 374.892 646.225 376.206 650.902 377.765C655.578 379.293 660.132 381.219 664.534 383.42C673.367 387.79 681.467 393.659 688.405 400.597C689.475 401.667 689.475 403.409 688.405 404.479C687.397 405.488 685.807 405.549 684.737 404.662L684.676 404.632C677.554 398.763 669.73 393.812 661.324 390.113C659.246 389.105 657.106 388.341 654.967 387.485C652.797 386.751 650.657 385.926 648.426 385.284C644.055 383.909 639.562 382.839 635.038 381.952C625.991 380.18 616.73 379.446 607.438 379.202C602.792 379.11 598.146 379.171 593.5 379.385C588.885 379.568 584.147 379.935 579.654 380.485L579.501 380.516C578.004 380.699 576.628 379.63 576.445 378.132C576.323 376.756 577.209 375.473 578.523 375.136Z" fill="black"/>
<path d="M220.911 477.836C219.475 489.94 209.541 502.166 174.116 499.874C149.786 508.096 129.124 505.65 109.44 494.525C94.0655 494.036 84.4986 485.447 84.896 475.421C85.0182 472.151 85.5378 469.094 86.3631 466.252C96.9998 429.696 161.89 428.229 190.224 438.529C201.624 442.656 208.777 449.38 213.3 456.104C220.575 466.955 220.911 477.836 220.911 477.836Z" fill="white"/>
<path d="M220.911 477.836C219.475 489.939 209.541 502.166 174.116 499.873C149.786 508.095 129.124 505.65 109.44 494.524C94.0655 494.035 84.4986 485.446 84.896 475.421C85.0182 472.151 85.5378 469.094 86.3631 466.251C91.8648 468.758 102.012 470.867 110.326 458.457C111.977 490.153 169.898 497.122 181.299 461.697C181.299 461.697 218.038 495.533 213.27 456.134V456.104C220.575 466.954 220.911 477.836 220.911 477.836Z" fill="#EDEBF9"/>
<path d="M146.578 510.173C133.221 510.173 120.414 506.75 107.913 499.904C98.4683 499.353 90.4908 495.991 85.2641 490.398C81.2907 486.119 79.2122 480.709 79.4262 475.176C79.9763 461.147 86.7618 449.379 99.0185 441.127C125.243 423.521 169.899 425.294 192.059 433.363C224.978 445.345 226.323 476.338 226.353 477.652V478.08L226.292 478.477C224.672 492.048 214.372 507.698 174.759 505.405C165.1 508.584 155.717 510.173 146.578 510.173ZM153.211 438.406C136.155 438.406 117.908 441.677 105.162 450.205C95.7786 456.501 90.827 465.029 90.3991 475.604C90.3074 478.263 91.2855 480.8 93.3028 482.94C96.6955 486.577 102.656 488.808 109.655 489.022L111 489.053L112.192 489.725C131.265 500.545 150.399 502.104 172.406 494.677L173.445 494.341L174.515 494.402C199.884 496.052 213.638 490.398 215.472 477.622C215.227 474.29 212.721 452.497 188.391 443.664C179.711 440.515 166.843 438.406 153.211 438.406Z" fill="black"/>
<path d="M112.741 459.772C111.61 462.401 110.632 465.396 109.96 468.269C109.287 471.173 108.798 474.107 108.798 476.95C108.768 479.792 109.135 482.482 109.899 484.927C110.754 487.311 112.069 489.298 113.658 490.979L113.75 491.071C115.828 493.271 115.737 496.756 113.536 498.834C111.335 500.913 107.851 500.821 105.772 498.62C105.62 498.437 105.436 498.253 105.314 498.07C102.93 494.769 101.31 491.01 100.576 487.189C99.9344 483.399 100.087 479.67 100.637 476.185C101.188 472.67 102.227 469.4 103.449 466.221C104.733 463.042 106.139 460.108 107.973 457.113C108.768 455.829 110.449 455.432 111.733 456.226C112.894 456.96 113.353 458.427 112.802 459.65L112.741 459.772Z" fill="black"/>
<path d="M183.957 460.902C185.18 464.448 185.974 467.841 186.586 471.447C187.136 475.023 187.442 478.722 187.228 482.481C187.044 486.241 186.311 490.153 184.782 493.943C183.988 495.838 183.01 497.672 181.787 499.415C180.564 501.157 179.097 502.746 177.508 504.183C175.246 506.2 171.792 506.017 169.775 503.755C167.758 501.493 167.941 498.039 170.203 496.022C170.386 495.869 170.57 495.716 170.753 495.594L170.784 495.563C171.853 494.83 172.831 494.035 173.748 493.088C174.635 492.109 175.429 491.04 176.132 489.848C177.508 487.433 178.486 484.59 179.067 481.564C179.647 478.538 179.831 475.329 179.77 472.12C179.709 468.91 179.342 465.548 178.73 462.492L178.7 462.339C178.394 460.872 179.372 459.405 180.839 459.13C182.184 458.824 183.499 459.619 183.957 460.902Z" fill="black"/>
<path d="M491.474 477.836C492.91 489.939 502.844 502.165 538.269 499.873C562.599 508.095 583.261 505.65 602.945 494.524C618.319 494.035 627.886 485.446 627.489 475.421C627.367 472.15 626.847 469.094 626.022 466.251C615.385 429.695 550.495 428.228 522.161 438.529C510.76 442.655 503.608 449.379 499.085 456.104C491.81 466.954 491.474 477.836 491.474 477.836Z" fill="white"/>
<path d="M491.474 477.835C492.91 489.939 502.844 502.165 538.269 499.873C562.599 508.095 583.261 505.649 602.945 494.524C618.319 494.035 627.886 485.446 627.489 475.42C627.367 472.15 626.847 469.093 626.022 466.251C620.52 468.757 610.373 470.866 602.059 458.457C600.408 490.153 542.487 497.122 531.086 461.697C531.086 461.697 494.347 495.532 499.115 456.134V456.103C491.81 466.954 491.474 477.835 491.474 477.835Z" fill="#EDEBF9"/>
<path d="M565.808 510.173C556.669 510.173 547.286 508.584 537.535 505.374C497.923 507.667 487.653 492.048 486.002 478.447L485.941 478.049V477.621C485.972 476.307 487.317 445.314 520.235 433.332C542.395 425.263 587.051 423.49 613.276 441.096C625.533 449.348 632.318 461.116 632.868 475.145C633.082 480.708 631.034 486.118 627.03 490.367C621.834 495.96 613.826 499.292 604.381 499.873C591.972 506.75 579.165 510.173 565.808 510.173ZM539.003 494.34L540.042 494.677C562.049 502.104 581.182 500.545 600.255 489.725L601.447 489.053L602.792 489.022C609.761 488.808 615.721 486.607 619.144 482.94C621.131 480.8 622.14 478.263 622.048 475.604C621.62 465.059 616.669 456.501 607.285 450.204C584.361 434.83 543.557 436.542 524.087 443.633C499.787 452.466 497.25 474.259 497.006 477.591C498.84 490.367 512.625 496.022 537.963 494.371L539.003 494.34Z" fill="black"/>
<path d="M604.441 457.082C606.306 460.077 607.712 463.011 608.965 466.19C610.187 469.338 611.227 472.639 611.777 476.154C612.327 479.669 612.449 483.368 611.838 487.158C611.104 490.948 609.484 494.738 607.1 498.039C605.328 500.515 601.904 501.065 599.428 499.292C596.953 497.519 596.402 494.096 598.175 491.62C598.328 491.437 598.45 491.254 598.634 491.07L598.756 490.948C600.345 489.267 601.66 487.28 602.516 484.896C603.28 482.481 603.646 479.761 603.616 476.918C603.616 474.076 603.127 471.142 602.454 468.238C601.782 465.365 600.804 462.369 599.673 459.741L599.612 459.588C599.001 458.213 599.642 456.593 601.018 455.981C602.302 455.462 603.738 455.951 604.441 457.082Z" fill="black"/>
<path d="M533.682 462.461C533.071 465.518 532.704 468.88 532.643 472.089C532.582 475.329 532.765 478.508 533.346 481.534C533.927 484.56 534.905 487.402 536.28 489.817C536.983 491.009 537.778 492.079 538.664 493.057C539.581 494.004 540.559 494.799 541.629 495.533C544.136 497.244 544.778 500.637 543.066 503.143C541.354 505.65 537.961 506.292 535.455 504.58C535.272 504.458 535.058 504.274 534.874 504.121C533.254 502.685 531.818 501.096 530.595 499.353C529.403 497.611 528.395 495.747 527.6 493.882C526.072 490.092 525.369 486.21 525.155 482.42C524.941 478.63 525.246 474.962 525.797 471.386C526.377 467.779 527.172 464.387 528.425 460.841C528.914 459.405 530.473 458.64 531.91 459.16C533.224 459.619 533.957 460.963 533.713 462.278L533.682 462.461Z" fill="black"/>
<circle cx="233" cy="283" r="65" fill="white"/>
<circle cx="476" cy="283" r="65" fill="white"/>
</svg>
